<?xml version="1.0" standalone="no"?>
<!DOCTYPE svg PUBLIC "-//W3C//DTD SVG 20010904//EN"
 "http://www.w3.org/TR/2001/REC-SVG-20010904/DTD/svg10.dtd">
<svg version="1.0" xmlns="http://www.w3.org/2000/svg"
 width="1875.000000pt" height="1875.000000pt" viewBox="0 0 1875.000000 1875.000000"
 preserveAspectRatio="xMidYMid meet">
<metadata>
Created by potrace 1.14, written by Peter Selinger 2001-2017
</metadata>
<g transform="translate(0.000000,1875.000000) scale(0.100000,-0.100000)"
fill="#000000" stroke="none">
<path d="M9288 15636 c-15 -8 -49 -14 -76 -13 -27 1 -61 -4 -75 -12 -23 -12
-34 -11 -93 8 -43 15 -77 21 -98 17 -17 -4 -52 -8 -78 -10 -32 -2 -59 -12 -81
-29 -25 -19 -45 -25 -80 -25 -35 1 -54 -5 -81 -25 -33 -26 -86 -119 -86 -152
0 -9 -8 -29 -19 -43 -23 -34 -35 -77 -33 -123 2 -33 0 -36 -26 -35 -15 1 -35
11 -45 24 -21 25 -64 45 -119 56 -21 4 -38 11 -38 17 0 18 -78 89 -113 104
-97 41 -164 22 -252 -68 -33 -34 -69 -80 -80 -102 -11 -22 -22 -42 -25 -45 -3
-3 -10 -14 -16 -25 -11 -20 -21 -27 -108 -67 -26 -13 -47 -27 -46 -32 1 -5 -2
-12 -7 -15 -5 -3 -26 -40 -46 -82 -20 -42 -55 -96 -77 -120 -22 -24 -47 -57
-55 -74 -9 -16 -20 -37 -24 -45 -23 -38 -42 -93 -43 -122 -2 -62 2 -73 47
-133 25 -33 43 -64 42 -69 -2 -7 -79 -33 -127 -43 -92 -19 -419 -125 -650
-210 -185 -69 -485 -197 -510 -219 -13 -11 -15 -166 -14 -1286 0 -700 4 -1311
8 -1358 12 -139 14 -158 31 -248 34 -182 102 -415 164 -557 101 -233 250 -515
272 -515 5 0 8 -4 6 -8 -5 -18 271 -416 318 -457 29 -26 95 -114 88 -118 -4
-3 -34 -10 -65 -17 -32 -7 -58 -17 -58 -22 0 -5 -4 -7 -8 -4 -7 4 -168 -43
-267 -78 -5 -2 -14 -4 -20 -6 -5 -1 -39 -13 -75 -27 -36 -14 -69 -26 -75 -27
-5 -2 -23 -8 -38 -14 -16 -7 -30 -12 -33 -12 -14 0 -220 -85 -222 -92 -2 -4
-8 -6 -13 -2 -5 3 -9 0 -9 -6 0 -6 -4 -8 -10 -5 -5 3 -27 -3 -49 -15 -22 -11
-45 -20 -51 -20 -33 0 -35 -22 -35 -492 0 -258 3 -468 6 -468 3 0 54 20 113
45 60 25 114 45 122 45 8 0 14 4 14 9 0 5 10 11 23 14 12 2 60 19 107 37 47
17 95 34 108 37 12 3 22 10 22 15 0 5 5 6 10 3 6 -3 16 -3 23 2 6 4 17 8 22 9
6 1 57 18 115 37 129 42 322 101 375 113 6 1 56 14 111 28 56 15 110 28 120
31 11 2 42 9 69 15 28 6 61 14 75 16 14 3 43 10 65 15 22 5 51 12 65 14 14 2
34 6 45 8 11 3 66 12 122 22 l101 18 139 -110 c243 -192 635 -473 661 -473 6
0 12 -4 14 -9 4 -10 129 -89 312 -197 l140 -82 53 29 c29 16 89 51 134 79 44
27 85 50 90 50 5 0 9 5 9 10 0 6 5 10 11 10 13 0 383 244 499 328 150 110 277
207 373 285 104 85 96 82 187 63 13 -3 42 -8 65 -11 22 -4 57 -10 77 -16 20
-5 40 -9 45 -7 4 1 27 -4 51 -11 23 -6 47 -9 52 -6 6 3 10 2 10 -2 0 -5 26
-14 58 -20 70 -14 76 -16 182 -42 47 -12 95 -24 106 -26 12 -3 51 -14 86 -25
35 -11 73 -21 83 -23 11 -2 27 -6 35 -9 61 -22 407 -132 415 -133 6 0 12 -2
15 -5 9 -10 265 -105 278 -104 6 1 12 -2 12 -6 0 -5 10 -12 23 -15 12 -4 46
-18 75 -32 29 -14 56 -22 60 -18 4 4 7 216 7 472 1 438 -1 474 -25 479 -5 1
-23 8 -102 42 -25 11 -49 18 -52 15 -3 -4 -6 -2 -6 3 0 6 -17 16 -37 23 -21 7
-47 16 -58 21 -29 13 -188 72 -200 75 -16 3 -49 16 -65 24 -9 5 -31 12 -50 16
-19 4 -39 10 -45 14 -5 3 -12 6 -15 7 -3 0 -12 3 -20 6 -25 10 -211 66 -277
84 -35 10 -63 21 -63 26 0 9 47 72 89 117 31 35 181 235 217 291 16 25 32 47
37 48 4 2 7 10 7 18 0 8 3 14 8 14 6 0 51 70 130 208 40 69 149 287 178 357
36 85 96 248 99 269 1 12 7 33 14 49 11 28 46 161 54 207 16 86 27 150 31 185
3 22 9 58 12 80 8 49 12 2682 5 2693 -7 9 -73 40 -246 117 -16 8 -84 34 -150
60 -66 25 -129 50 -140 55 -46 20 -447 154 -490 164 -56 12 -185 52 -185 57 0
3 13 17 29 31 40 36 65 116 58 187 -6 64 -31 144 -57 181 -9 14 -20 43 -24 65
-4 22 -23 68 -42 102 -19 34 -34 69 -34 78 0 28 -95 111 -149 131 -36 13 -58
29 -76 54 -39 57 -74 82 -158 116 -130 53 -209 37 -353 -69 -78 -57 -106 -71
-174 -87 -30 -7 -75 -21 -99 -32 -42 -18 -44 -18 -57 -1 -7 10 -14 22 -14 26
0 5 -9 22 -20 37 -17 24 -20 40 -17 97 5 83 -11 150 -46 196 -29 39 -112 84
-168 93 -26 4 -40 13 -48 30 -18 41 -75 55 -123 30z"/>
<path d="M12246 8578 c-3 -7 -4 -133 -3 -281 1 -147 0 -267 -3 -268 -39 -7
-70 -4 -66 6 4 11 -119 63 -136 57 -5 -1 -8 2 -8 7 0 5 -24 16 -52 25 -29 9
-63 21 -75 26 -89 38 -228 90 -240 90 -10 0 -13 -27 -13 -103 l0 -102 235 0
c129 0 235 -3 235 -7 0 -5 -10 -8 -22 -9 -13 -1 -34 -2 -48 -4 -14 -1 -59 -5
-100 -9 -212 -16 -246 -19 -257 -19 -7 0 -13 -4 -13 -8 0 -7 58 -23 125 -35
17 -3 44 -9 61 -15 17 -5 44 -12 60 -14 16 -3 84 -18 152 -35 67 -16 137 -33
155 -36 38 -7 47 -9 67 -16 8 -3 51 -13 95 -23 44 -9 87 -18 95 -20 8 -2 67
-16 130 -30 63 -14 123 -28 133 -31 32 -10 17 16 -50 84 -37 37 -63 60 -58 52
4 -8 5 -12 0 -8 -4 4 -13 18 -20 30 -6 13 -17 22 -24 20 -7 -1 -10 1 -7 6 3 5
-16 30 -42 54 -26 25 -87 86 -135 136 -71 73 -85 91 -70 96 10 3 74 21 143 40
69 19 155 43 192 54 37 11 70 17 73 14 3 -3 5 0 5 7 0 7 4 10 9 7 5 -3 27 1
49 8 22 8 43 12 46 9 3 -4 6 1 6 9 0 9 -12 19 -27 23 -16 3 -41 12 -58 20 -16
7 -46 18 -65 25 -19 7 -44 16 -55 20 -23 10 -105 41 -245 93 -52 19 -104 38
-115 43 -11 4 -22 8 -25 8 -3 1 -11 5 -18 9 -7 5 -14 3 -16 -5z"/>
<path d="M5936 8571 c-3 -4 -27 -14 -53 -21 -27 -8 -50 -16 -53 -19 -3 -3 -32
-15 -65 -26 -33 -10 -63 -23 -66 -28 -3 -5 -10 -8 -15 -8 -16 2 -209 -71 -212
-80 -2 -5 -7 -7 -12 -4 -4 3 -23 -1 -41 -9 -19 -7 -43 -16 -54 -21 -17 -6 -14
-9 19 -21 22 -8 49 -16 60 -18 12 -2 40 -11 63 -19 28 -9 40 -11 36 -3 -5 8
-3 8 8 -1 14 -11 88 -34 119 -37 9 -1 20 -4 25 -7 6 -3 48 -16 95 -28 47 -13
91 -25 99 -27 10 -3 -22 -42 -92 -112 -59 -60 -104 -112 -100 -116 4 -4 3 -6
-3 -4 -15 4 -106 -87 -96 -96 4 -4 3 -6 -3 -4 -11 3 -148 -133 -140 -140 2 -3
26 1 52 8 26 7 58 14 70 15 11 2 30 6 41 9 11 4 29 9 39 11 26 5 168 38 303
70 63 15 122 28 130 30 8 2 15 4 15 5 0 1 11 3 25 6 42 7 124 25 140 31 8 3
24 7 35 8 11 2 61 13 110 25 50 11 100 23 113 26 26 5 21 23 -6 22 -9 0 -42 2
-72 5 -30 4 -98 9 -150 13 -52 3 -106 7 -120 9 -14 2 -36 3 -49 4 -13 1 -21 4
-17 9 4 4 110 7 234 7 l227 0 3 107 3 108 -53 -20 c-29 -12 -78 -30 -108 -42
-88 -34 -124 -48 -142 -58 -10 -6 -23 -10 -29 -10 -6 0 -25 -6 -42 -14 -39
-16 -106 -42 -129 -50 -10 -3 -18 -12 -18 -21 0 -12 -7 -14 -32 -10 -18 4 -34
7 -35 9 -2 1 -3 125 -4 274 l0 272 -24 0 c-13 0 -26 -4 -29 -9z"/>
<path d="M2318 7536 c-6 -20 0 -1540 6 -1601 12 -112 50 -255 67 -255 6 0 7
-4 4 -10 -16 -26 114 -183 180 -217 17 -8 38 -22 48 -31 9 -8 17 -11 17 -6 0
5 4 4 8 -1 12 -19 144 -71 232 -94 190 -48 346 -48 535 0 86 22 225 83 225 99
0 6 5 10 11 10 17 0 98 88 136 148 34 52 107 212 97 212 -2 0 0 8 5 18 12 23
23 71 38 177 10 63 10 315 0 375 -7 44 -18 98 -32 150 -3 14 -8 32 -10 40 -2
8 -4 16 -5 18 -2 1 -3 5 -5 10 -12 45 -65 152 -75 152 -5 0 -9 3 -8 8 4 13
-23 56 -50 81 -15 13 -20 20 -12 16 8 -4 -9 17 -39 48 -30 31 -59 53 -64 50
-6 -3 -7 -1 -4 4 4 6 -19 26 -52 46 -268 160 -613 104 -782 -127 -16 -21 -30
-35 -30 -30 -1 5 -2 131 -3 279 -1 269 -9 335 -39 335 -6 0 -8 3 -4 6 10 10
-49 63 -90 81 -46 19 -300 27 -305 9z m892 -859 c44 -11 75 -21 85 -29 78 -62
96 -78 89 -78 -4 0 2 -10 13 -22 12 -13 30 -43 41 -68 27 -61 30 -72 48 -165
8 -39 7 -230 -1 -275 -14 -80 -38 -158 -61 -197 -14 -24 -23 -43 -20 -43 16 0
-73 -75 -121 -102 -55 -31 -63 -33 -158 -33 -89 0 -106 3 -157 28 -54 26 -148
117 -148 142 0 5 -6 22 -14 37 -25 48 -47 174 -50 288 -2 74 16 221 33 263 6
16 9 33 5 38 -3 5 -1 9 4 9 5 0 17 18 27 40 10 22 22 40 27 40 4 0 8 4 8 10 0
11 84 92 92 90 2 -1 17 4 33 10 17 7 46 14 65 17 19 3 37 7 39 9 4 3 96 -3
121 -9z"/>
<path d="M7089 7532 c-1 -4 -2 -503 -3 -1109 -1 -749 2 -1103 9 -1104 66 -6
418 -2 423 6 3 5 6 232 7 505 1 272 5 509 9 525 19 70 39 123 64 165 14 25 25
49 24 53 -1 5 1 7 5 4 10 -5 43 29 37 37 -2 3 -1 4 2 2 3 -2 22 7 41 20 86 58
237 66 341 17 78 -36 158 -147 187 -259 17 -62 18 -115 19 -611 0 -310 4 -463
11 -464 31 -3 392 -4 406 -1 13 3 15 64 13 565 0 309 -4 580 -8 602 -33 184
-91 296 -215 413 -75 71 -206 142 -291 158 -14 3 -41 8 -60 13 -57 12 -180 5
-250 -14 -3 -1 -20 -5 -37 -9 -18 -4 -33 -12 -33 -17 0 -6 -5 -7 -10 -4 -12 7
-112 -51 -156 -92 -17 -15 -43 -45 -58 -65 -16 -21 -32 -38 -35 -38 -4 0 -7
114 -7 254 1 284 -5 322 -58 377 -44 45 -56 54 -91 66 -34 11 -284 16 -286 5z"/>
<path d="M9509 7533 c-1 -5 -2 -504 -3 -1110 0 -729 2 -1103 9 -1104 31 -3
422 -4 432 -1 8 2 11 93 10 338 l0 334 23 25 c52 55 118 36 175 -49 17 -25 34
-46 38 -46 5 0 6 -4 2 -9 -3 -5 2 -17 11 -25 8 -9 13 -16 10 -16 -4 0 4 -17
17 -37 13 -21 39 -68 57 -105 19 -37 37 -65 40 -63 3 2 7 -6 7 -17 1 -11 8
-28 16 -37 7 -9 31 -50 52 -91 20 -41 42 -81 48 -89 6 -7 12 -20 14 -29 1 -9
7 -18 12 -20 6 -2 11 -9 11 -15 0 -7 7 -21 15 -31 14 -19 30 -20 276 -20 143
-1 263 3 266 7 3 5 -1 16 -9 25 -7 9 -22 34 -32 55 -11 20 -23 37 -28 37 -5 0
-7 4 -4 9 3 5 -3 19 -13 32 -10 13 -26 40 -36 59 -10 19 -21 37 -24 40 -3 3
-13 19 -21 35 -8 17 -17 32 -20 35 -6 6 -21 31 -63 110 -17 30 -33 57 -36 60
-4 3 -17 26 -30 53 -13 26 -28 47 -33 47 -4 0 -7 3 -6 8 1 4 -17 39 -40 79
-23 39 -45 79 -48 87 -3 9 -10 13 -15 10 -5 -3 -6 2 -3 10 3 9 1 16 -5 16 -6
0 -11 4 -11 10 0 5 -24 49 -52 97 -92 154 -90 132 -17 209 35 37 77 80 92 96
15 15 26 28 23 28 -2 0 20 23 49 52 30 29 51 56 49 60 -3 4 -1 8 5 8 11 0 11
0 118 116 45 49 109 118 142 153 33 36 58 67 56 70 -3 2 -121 5 -263 6 l-257
0 -30 -30 c-16 -17 -55 -60 -85 -95 -30 -35 -72 -82 -92 -104 -20 -22 -34 -44
-31 -50 3 -5 1 -6 -6 -2 -6 4 -14 0 -18 -11 -4 -9 -18 -29 -32 -43 -27 -27
-62 -66 -146 -165 -27 -32 -65 -74 -82 -94 l-33 -36 0 40 c-1 22 -2 236 -2
475 -1 418 -5 486 -29 500 -6 4 -9 10 -7 14 5 10 -63 76 -73 70 -5 -3 -9 -1
-9 3 0 19 -63 29 -192 31 -76 2 -138 -1 -139 -5z"/>
<path d="M11137 7532 c-2 -4 -3 -504 -3 -1111 l1 -1105 208 0 c114 -1 213 1
220 4 9 4 12 120 13 490 0 267 4 505 8 530 5 25 10 52 11 60 1 8 11 37 23 64
12 27 22 50 22 53 0 2 11 16 24 30 14 15 23 30 20 35 -3 4 -1 8 4 8 5 0 22 11
38 25 45 39 130 67 204 68 76 0 140 -6 140 -13 0 -3 13 -11 29 -18 34 -15 111
-84 111 -100 0 -7 4 -12 8 -12 5 0 17 -18 27 -40 10 -22 22 -40 26 -40 5 0 6
-7 3 -15 -4 -8 -2 -21 4 -28 20 -25 25 -153 26 -622 l1 -479 200 -1 c110 0
207 1 215 3 24 5 21 1113 -3 1218 -48 213 -165 366 -358 467 -137 72 -279 88
-454 53 -93 -19 -223 -101 -285 -181 -19 -25 -37 -45 -41 -45 -3 0 -5 121 -6
268 0 261 0 270 -23 315 -22 43 -70 100 -70 83 0 -4 -7 0 -15 8 -9 9 -33 20
-53 25 -43 11 -269 14 -275 3z"/>
<path d="M4657 7074 c-1 -1 -35 -4 -75 -8 -154 -12 -299 -70 -391 -155 -62
-58 -102 -111 -94 -124 3 -6 2 -7 -4 -4 -10 7 -38 -42 -29 -50 3 -3 -2 -12
-10 -20 -8 -9 -13 -22 -10 -29 3 -8 2 -14 -3 -14 -4 0 -8 -6 -9 -12 0 -7 -3
-23 -6 -35 -6 -27 -25 -25 238 -25 187 -1 189 0 207 23 9 13 15 28 12 34 -4 5
-3 7 1 3 4 -3 23 4 42 17 63 43 228 56 332 26 18 -5 36 -10 40 -10 40 -5 101
-56 103 -88 5 -67 2 -80 -21 -107 -43 -48 -135 -84 -260 -101 -55 -7 -97 -14
-130 -20 -14 -2 -45 -7 -70 -10 -47 -7 -134 -29 -185 -47 -60 -22 -155 -70
-155 -79 0 -5 -4 -8 -9 -6 -4 1 -30 -17 -57 -39 -44 -37 -100 -123 -108 -164
-1 -8 -8 -42 -15 -75 -27 -124 6 -382 55 -421 8 -6 11 -14 7 -17 -3 -4 -1 -7
5 -7 7 0 12 -6 12 -13 0 -14 49 -63 95 -94 48 -33 125 -74 125 -67 0 4 6 2 13
-3 31 -25 164 -48 277 -47 105 1 263 14 325 29 6 1 27 5 48 10 20 4 37 11 37
17 0 5 4 6 10 3 10 -6 121 42 131 58 3 5 9 7 12 5 4 -1 14 4 24 12 10 8 35 28
56 43 21 16 35 33 31 38 -3 5 -2 8 3 7 4 -2 9 2 11 7 2 6 9 13 17 17 33 19
105 158 121 233 1 6 6 24 10 40 4 17 9 217 11 445 3 436 4 434 -43 538 -26 57
-108 152 -130 152 -8 0 -14 4 -14 8 0 11 -120 70 -150 74 -14 2 -30 7 -36 10
-10 7 -42 14 -109 24 -58 9 -282 23 -288 18z m353 -1012 c0 -133 -14 -196 -60
-270 -16 -26 -41 -56 -56 -67 -15 -11 -32 -25 -38 -31 -16 -15 -95 -45 -136
-52 -70 -12 -174 -5 -215 13 -22 10 -44 17 -50 16 -5 -2 -7 1 -3 4 4 4 -3 22
-16 39 -34 46 -45 101 -31 166 26 130 58 150 365 224 80 20 146 40 148 46 2 6
8 8 13 5 5 -3 21 1 36 9 16 8 31 15 36 16 4 0 7 -53 7 -118z"/>
<path d="M6176 7072 c-2 -1 -28 -4 -58 -7 -150 -11 -310 -81 -413 -182 -51
-50 -101 -113 -97 -124 1 -5 -2 -9 -7 -9 -24 0 -108 -218 -126 -330 -16 -92
-23 -335 -12 -385 3 -11 8 -45 12 -75 18 -134 84 -312 136 -369 9 -9 22 -27
28 -39 7 -13 17 -19 23 -16 6 4 8 3 5 -3 -12 -19 115 -122 203 -166 47 -23 92
-44 100 -45 207 -49 429 -45 575 10 129 49 286 150 278 179 -2 5 1 8 6 6 13
-3 87 95 118 158 23 45 63 149 63 164 0 13 -384 5 -408 -8 -37 -20 -72 -53
-66 -63 3 -5 0 -7 -8 -6 -7 2 -12 -3 -10 -10 1 -8 -2 -11 -7 -8 -5 4 -13 0
-18 -7 -9 -16 -74 -51 -118 -65 -16 -5 -64 -10 -106 -11 -111 -3 -179 23 -246
94 -62 66 -87 117 -110 225 -22 105 -21 316 3 420 3 14 6 30 7 35 2 6 6 16 10
23 5 6 5 12 2 12 -15 0 70 139 92 151 13 7 23 16 23 19 0 4 24 18 53 31 73 33
220 34 289 2 45 -20 128 -95 128 -115 0 -5 6 -6 13 -2 6 4 9 4 5 -1 -4 -4 -3
-16 2 -25 9 -16 30 -18 234 -18 l224 0 -15 52 c-18 60 -63 152 -106 216 -41
62 -98 120 -110 113 -6 -3 -7 -1 -3 6 4 6 0 14 -11 18 -10 4 -26 14 -36 24
-39 36 -196 100 -282 114 -78 13 -252 25 -259 17z"/>
<path d="M13497 7074 c-1 -1 -27 -4 -57 -7 -94 -10 -162 -28 -235 -62 -75 -34
-182 -110 -177 -126 1 -5 -4 -8 -10 -7 -7 2 -12 -3 -10 -10 1 -8 -2 -11 -7 -8
-12 8 -82 -84 -74 -97 3 -5 2 -7 -4 -4 -8 5 -74 -116 -78 -143 -1 -3 -9 -31
-18 -62 -36 -118 -50 -221 -49 -358 0 -124 8 -196 36 -325 20 -92 65 -217 85
-235 4 -3 13 -18 20 -33 15 -28 107 -127 150 -160 51 -40 211 -110 280 -123
14 -3 28 -7 32 -9 9 -6 121 -18 184 -19 45 -1 164 14 223 28 12 3 32 9 45 12
12 3 27 6 34 8 7 1 16 5 19 9 4 4 16 7 26 7 10 0 21 7 24 15 4 8 9 13 14 10 8
-5 97 49 121 75 9 9 27 25 40 36 41 33 95 107 133 181 32 63 68 159 71 188 1
6 4 20 9 32 38 113 41 389 7 563 -30 147 -116 322 -204 411 -49 49 -86 79 -97
79 -6 0 -10 4 -10 8 0 12 -149 84 -160 77 -6 -3 -10 -2 -10 3 0 9 -59 24 -150
38 -40 6 -197 13 -203 8z m138 -386 c65 -14 100 -33 150 -84 51 -52 91 -117
101 -163 1 -7 8 -36 15 -65 14 -56 17 -260 6 -346 -10 -75 -33 -152 -58 -195
-12 -19 -19 -35 -15 -35 3 0 -12 -16 -32 -36 -20 -20 -36 -41 -34 -46 1 -5 -2
-7 -7 -4 -5 4 -11 3 -13 -1 -1 -5 -23 -19 -48 -33 -39 -21 -57 -25 -135 -24
-75 0 -97 4 -129 22 -21 13 -40 21 -43 18 -10 -9 -81 71 -106 120 -27 53 -53
142 -63 215 -10 73 -12 255 -3 308 11 70 42 171 52 171 4 0 6 4 3 9 -3 4 2 17
12 28 9 11 27 34 40 50 25 34 93 70 160 87 61 16 87 16 147 4z"/>
<path d="M15067 7074 c-1 -1 -33 -5 -72 -8 -55 -5 -124 -17 -152 -26 -66 -21
-137 -51 -154 -66 -8 -8 -20 -14 -26 -14 -6 0 -40 -29 -75 -64 -66 -66 -114
-145 -141 -239 -14 -45 -13 -49 4 -55 10 -4 106 -7 214 -6 l195 1 35 40 c45
53 104 74 220 78 100 3 224 -22 258 -52 64 -58 55 -153 -18 -200 -19 -13 -39
-23 -45 -23 -5 0 -10 -5 -10 -11 0 -5 -4 -8 -9 -5 -4 3 -23 1 -42 -5 -19 -6
-43 -12 -54 -14 -33 -6 -167 -27 -205 -31 -166 -21 -331 -80 -430 -153 -86
-64 -124 -123 -154 -244 -16 -64 -19 -264 -5 -273 5 -3 7 -9 5 -13 -16 -26 49
-171 102 -228 33 -35 99 -87 112 -88 3 -1 23 -10 45 -22 50 -25 126 -50 185
-59 100 -15 346 -5 475 21 90 18 255 92 279 126 7 10 15 17 18 14 2 -3 21 12
40 33 52 56 109 138 101 145 -3 4 -1 7 5 7 10 0 45 96 57 159 14 69 18 202 18
496 -1 345 -4 402 -29 461 -24 58 -77 134 -93 134 -8 0 -11 3 -8 7 9 9 -76 69
-138 97 -69 32 -203 63 -305 72 -86 7 -199 11 -203 8z m358 -1022 c-2 -59 -8
-127 -16 -152 -7 -25 -13 -47 -14 -50 0 -3 -9 -21 -20 -40 -11 -19 -18 -39
-16 -45 1 -5 0 -7 -4 -4 -9 9 -62 -44 -56 -56 2 -5 1 -7 -4 -3 -4 4 -21 -2
-37 -13 -16 -12 -34 -22 -41 -23 -7 -2 -19 -6 -27 -9 -99 -41 -257 -26 -325
31 -47 39 -67 143 -44 227 21 75 122 141 244 161 22 3 43 8 46 10 4 2 24 6 45
10 22 3 44 10 50 15 6 5 13 7 16 4 3 -3 25 2 49 11 24 8 51 17 59 19 8 1 31 9
50 17 19 8 38 11 41 6 3 -5 5 -57 4 -116z"/>
<path d="M8439 4562 c-219 -57 -365 -260 -353 -489 11 -192 155 -375 334 -423
89 -24 142 -28 223 -16 109 16 214 73 272 147 17 21 38 49 48 60 28 36 22 46
-30 43 -39 -3 -53 -9 -83 -41 -40 -41 -100 -94 -100 -87 0 2 -21 -6 -47 -17
-60 -26 -179 -33 -236 -14 -84 27 -117 42 -110 48 3 4 1 7 -5 7 -12 0 -112 98
-112 111 0 4 -6 14 -13 21 -19 19 -51 126 -52 173 -2 111 46 225 126 300 26
24 45 46 43 49 -2 3 -1 4 3 1 3 -3 20 4 37 14 88 53 232 61 326 19 14 -6 36
-16 49 -22 14 -6 48 -35 77 -64 47 -48 58 -54 98 -56 49 -2 55 3 31 27 -8 8
-12 17 -9 19 6 7 -77 94 -87 91 -5 -2 -9 1 -9 7 0 5 -17 21 -38 35 -98 65
-259 89 -383 57z"/>
<path d="M11194 4563 c-27 -7 -53 -15 -59 -17 -55 -18 -155 -86 -155 -105 0
-8 -3 -12 -6 -8 -8 7 -34 -17 -34 -32 0 -6 -4 -11 -9 -11 -12 0 -65 -94 -80
-141 -31 -96 -31 -200 -1 -289 25 -74 87 -173 103 -163 5 3 7 2 4 -4 -7 -10
43 -59 56 -55 4 1 7 -2 7 -8 0 -12 74 -55 129 -74 70 -25 172 -35 246 -23 39
6 147 44 154 55 3 4 19 13 34 20 15 6 30 19 33 27 4 8 10 15 15 15 14 0 88 83
83 92 -3 4 -1 8 5 8 11 0 58 93 67 132 10 43 12 208 3 214 -5 3 -7 10 -3 15 3
6 -1 24 -9 42 -8 18 -23 50 -33 72 -10 22 -47 70 -83 106 -127 127 -304 177
-467 132z m229 -82 c16 -6 33 -9 38 -5 5 3 9 1 9 -4 0 -8 55 -38 55 -30 1 12
120 -122 136 -154 61 -120 60 -270 -3 -379 -42 -73 -178 -179 -231 -179 -9 0
-17 -4 -17 -8 0 -10 -176 -8 -205 2 -133 47 -230 142 -271 265 -23 72 -15 197
17 266 13 28 27 52 31 53 4 2 8 10 8 17 0 17 103 111 143 130 69 32 113 41
186 39 42 -1 89 -6 104 -13z"/>
<path d="M5614 4561 c-2 -2 -4 -210 -4 -460 l0 -457 250 1 250 0 0 40 0 40
-202 0 -203 0 -3 170 -2 170 187 0 c104 0 194 1 200 3 8 3 12 19 11 42 l-1 38
-181 0 c-100 0 -189 1 -198 1 -16 1 -18 16 -18 166 l0 165 205 0 205 0 0 43 0
42 -246 0 c-135 0 -248 -2 -250 -4z"/>
<path d="M6331 4559 c-16 -6 -17 -38 -16 -460 l0 -454 165 0 c150 0 267 10
280 24 3 3 10 6 15 6 23 0 104 38 99 47 -3 4 -1 7 4 6 25 -7 118 81 155 147
38 67 45 96 53 200 5 59 2 96 -10 140 -10 33 -18 65 -19 70 -7 30 -64 109
-106 148 -74 69 -165 109 -277 123 -76 9 -320 11 -343 3z m386 -92 c18 -5 55
-20 120 -49 7 -3 90 -87 113 -115 8 -10 14 -22 12 -26 -1 -5 1 -14 7 -21 17
-21 33 -129 28 -185 -7 -69 -30 -134 -65 -186 -14 -22 -25 -43 -24 -48 1 -4
-4 -6 -10 -5 -7 2 -12 -3 -10 -10 1 -8 -2 -11 -7 -8 -5 4 -14 -2 -20 -11 -5
-10 -13 -17 -18 -17 -4 1 -25 -7 -45 -17 -58 -29 -128 -41 -266 -43 l-127 -2
1 376 c1 206 2 377 3 379 1 5 282 -6 308 -12z"/>
<path d="M7289 4563 c-14 -3 -15 -41 -14 -326 1 -212 6 -339 14 -372 14 -56
40 -115 51 -115 4 0 10 -8 12 -18 7 -24 91 -79 141 -93 40 -11 134 -13 172 -5
128 28 208 128 231 286 6 40 5 632 -1 638 -8 8 -76 9 -80 1 -3 -3 -5 -149 -5
-323 -1 -325 -8 -396 -46 -433 -7 -8 -19 -22 -26 -32 -33 -47 -140 -71 -223
-50 -42 11 -126 92 -131 126 -1 10 -6 41 -11 68 -5 28 -8 184 -8 348 1 263 -1
297 -14 298 -9 0 -23 2 -31 3 -8 1 -22 1 -31 -1z"/>
<path d="M9466 4555 c-7 -5 -36 -66 -65 -135 -29 -69 -61 -143 -71 -165 -9
-22 -36 -85 -59 -140 -24 -55 -52 -120 -63 -145 -11 -25 -21 -50 -22 -56 -1
-7 -8 -19 -15 -28 -7 -8 -10 -20 -6 -26 3 -5 1 -10 -4 -10 -6 0 -11 -5 -11
-10 0 -6 -11 -33 -25 -61 -13 -29 -22 -56 -19 -60 3 -5 1 -9 -4 -9 -5 0 -13
-15 -19 -34 l-11 -34 48 1 c27 1 48 4 47 7 -1 3 7 20 16 37 10 18 17 34 17 35
-1 2 5 19 14 38 8 19 12 39 9 44 -4 5 -2 6 4 3 5 -3 15 11 23 31 7 20 21 55
31 77 l19 40 212 0 212 0 31 -70 c16 -39 34 -73 40 -77 5 -4 7 -8 3 -8 -4 0 9
-35 27 -77 l34 -77 49 -1 c50 -1 56 6 32 40 -4 6 -15 31 -25 58 -10 26 -22 47
-27 47 -5 0 -7 4 -3 9 3 5 -6 34 -19 63 -13 29 -41 91 -61 138 -20 47 -45 103
-55 125 -9 22 -23 57 -31 78 -7 20 -16 37 -19 37 -4 0 -7 7 -7 15 0 8 -10 36
-23 62 -12 27 -26 57 -30 68 -4 11 -17 40 -28 65 -11 25 -26 60 -34 78 -7 17
-20 32 -28 33 -8 0 -28 2 -43 3 -16 1 -35 -3 -41 -9z m87 -173 c4 -2 5 -8 1
-13 -3 -5 -2 -15 3 -21 16 -25 130 -303 127 -307 -3 -3 -82 -5 -178 -5 -170
-1 -173 -1 -166 19 11 27 42 100 69 157 11 26 21 50 21 53 0 3 10 27 21 53 12
26 31 67 41 92 l20 45 17 -35 c9 -19 19 -37 24 -38z"/>
<path d="M9905 4560 c-2 -3 -3 -22 -3 -42 l0 -38 103 0 c73 0 104 -4 107 -12
2 -7 4 -194 3 -415 -1 -274 2 -404 9 -406 6 -2 27 -3 46 -2 l34 1 0 416 0 416
100 1 c55 1 102 4 105 6 2 3 5 21 6 40 1 29 -3 35 -20 36 -77 4 -488 3 -490
-1z"/>
<path d="M10559 4560 c-4 -3 -8 -211 -8 -461 l1 -456 38 1 c21 1 42 5 46 9 11
11 11 898 0 905 -12 7 -65 9 -77 2z"/>
<path d="M11984 4555 c-1 -5 -2 -212 -1 -460 l2 -450 42 -1 c23 0 44 4 45 10
2 6 3 185 3 399 -1 213 1 387 3 387 7 0 27 -26 41 -52 8 -16 18 -28 23 -28 4
0 8 -7 8 -15 0 -8 5 -15 10 -15 6 0 10 -7 10 -15 0 -8 5 -15 10 -15 6 0 10 -6
10 -13 0 -8 9 -22 20 -32 11 -10 20 -24 20 -32 0 -7 5 -13 10 -13 6 0 10 -7
10 -15 0 -8 4 -15 8 -15 5 0 15 -12 23 -27 7 -16 26 -44 41 -63 16 -19 28 -39
28 -43 0 -8 15 -28 60 -84 6 -7 10 -15 10 -18 0 -6 49 -75 61 -85 3 -3 8 -12
11 -20 3 -8 33 -55 67 -105 l61 -90 45 -1 c25 0 45 4 46 10 5 65 2 906 -3 907
-10 2 -31 2 -62 0 l-24 -1 0 -332 c0 -183 -1 -355 -1 -383 l-1 -50 -33 50
c-17 28 -35 52 -39 53 -5 2 -8 8 -8 13 0 11 -70 111 -85 121 -5 4 -6 8 -1 8 5
0 2 8 -6 18 -8 9 -66 94 -129 187 -63 94 -117 172 -121 173 -5 2 -8 10 -8 18
0 8 -4 14 -10 14 -5 0 -10 4 -10 10 0 11 -61 99 -69 101 -35 6 -114 2 -117 -6z"/>
</g>
</svg>
